# xmcd CD database file
#
# Track frame offsets:
#	150
#	16895
#	33640
#
# Disc length: 714 seconds
#
# Revision: 0
# Processed by: cddbd v1.5.1PL2 Copyright (c) Steve Scherf et al.
# Submitted via: CDex 1.51
#
DISCID=1b02c803
DTITLE=nomico | LOOPCUBE - はるのあしおと Spiral Spring -Step of Spring mix-
DYEAR=2006
DGENRE=Game
TTITLE0=Spiral Spring -Step of Spring mix-
TTITLE1=Spiral Spring -Instrumental-
TTITLE2=アーリーデイズ
EXTD=YEAR: 2006
EXTT0=
EXTT1=
EXTT2=
PLAYORDER=
